<mxfile host="app.diagrams.net" modified="2023-02-16T09:42:20.632Z" agent="5.0 (Windows NT 10.0; Win64; x64) AppleWebKit/537.36 (KHTML, like Gecko) Chrome/110.0.0.0 Safari/537.36 Edg/110.0.1587.41" etag="yKbM01NfxHiHGrk5_thB" version="20.8.20" type="github">
  <diagram name="第 1 页" id="fBDYY8C6qAsAvyU1s2A7">
    <mxGraphModel dx="1434" dy="796" grid="1" gridSize="10" guides="1" tooltips="1" connect="1" arrows="1" fold="1" page="1" pageScale="1" pageWidth="827" pageHeight="1169" math="0" shadow="0">
      <root>
        <mxCell id="0" />
        <mxCell id="1" parent="0" />
        <mxCell id="Ek-q4Cb_5R8HMSjOIuQS-1" value="分析优化程序执行控制" style="rounded=0;whiteSpace=wrap;html=1;" vertex="1" parent="1">
          <mxGeometry x="320" y="260" width="130" height="60" as="geometry" />
        </mxCell>
        <mxCell id="Ek-q4Cb_5R8HMSjOIuQS-2" value="" style="ellipse;whiteSpace=wrap;html=1;" vertex="1" parent="1">
          <mxGeometry x="190" y="200" width="120" height="50" as="geometry" />
        </mxCell>
        <mxCell id="Ek-q4Cb_5R8HMSjOIuQS-3" value="" style="ellipse;whiteSpace=wrap;html=1;" vertex="1" parent="1">
          <mxGeometry x="470" y="200" width="120" height="50" as="geometry" />
        </mxCell>
        <mxCell id="Ek-q4Cb_5R8HMSjOIuQS-4" value="" style="ellipse;whiteSpace=wrap;html=1;" vertex="1" parent="1">
          <mxGeometry x="190" y="350" width="120" height="50" as="geometry" />
        </mxCell>
        <mxCell id="Ek-q4Cb_5R8HMSjOIuQS-5" value="" style="ellipse;whiteSpace=wrap;html=1;" vertex="1" parent="1">
          <mxGeometry x="470" y="350" width="120" height="50" as="geometry" />
        </mxCell>
      </root>
    </mxGraphModel>
  </diagram>
</mxfile>
